<?xml version="1.0" standalone="no"?>
<!DOCTYPE svg PUBLIC "-//W3C//DTD SVG 20010904//EN"
 "http://www.w3.org/TR/2001/REC-SVG-20010904/DTD/svg10.dtd">
<svg version="1.0" xmlns="http://www.w3.org/2000/svg"
 width="500.000000pt" height="500.000000pt" viewBox="0 0 500.000000 500.000000"
 preserveAspectRatio="xMidYMid meet">

<g transform="translate(0.000000,500.000000) scale(0.100000,-0.100000)"
fill="#000000" stroke="none">
<path d="M2393 3256 c-159 -51 -258 -214 -232 -379 11 -66 39 -127 106 -232
55 -85 225 -315 232 -315 9 1 191 253 252 349 72 115 93 181 87 275 -12 177
-147 307 -328 313 -43 2 -93 -3 -117 -11z m177 -178 c59 -30 93 -93 87 -157
-12 -113 -137 -176 -237 -120 -97 55 -107 195 -19 262 57 42 106 47 169 15z"/>
<path d="M2474 3010 c-28 -11 -54 -48 -54 -78 0 -32 43 -72 77 -72 32 1 55 15
72 47 30 57 -35 127 -95 103z"/>
<path d="M1970 3151 l-255 -109 3 -81 c5 -172 58 -402 131 -570 66 -153 134
-253 261 -381 113 -114 188 -171 323 -245 l68 -37 82 47 c132 76 206 132 303
229 199 200 318 448 373 777 11 68 22 155 23 192 l3 68 -259 110 c-143 60
-260 109 -261 109 -1 0 18 -21 41 -46 24 -25 46 -53 49 -63 3 -10 72 -45 179
-89 l174 -74 -4 -31 c-40 -317 -92 -492 -199 -673 -107 -180 -237 -307 -437
-426 l-68 -40 -64 36 c-300 168 -500 437 -590 793 -27 105 -61 331 -52 340 3
4 79 37 168 75 120 50 168 75 183 96 11 15 35 44 54 65 18 20 32 37 30 37 -2
-1 -119 -50 -259 -109z"/>
<path d="M2918 2899 c-4 -79 -8 -97 -46 -173 -23 -46 -79 -136 -124 -198 -45
-62 -119 -166 -165 -230 l-85 -117 -80 112 c-255 354 -288 405 -320 495 -11
32 -21 86 -21 124 -1 37 -5 68 -10 68 -4 0 -41 -14 -83 -32 l-75 -31 7 -46
c22 -160 77 -348 136 -466 77 -153 219 -311 366 -409 73 -48 74 -49 105 -34
57 27 190 133 250 197 167 181 274 433 309 728 4 31 3 32 -78 66 l-82 34 -4
-88z"/>
</g>
</svg>
